<svg width="256" height="256" viewBox="0 0 256 256" xmlns="http://www.w3.org/2000/svg">
  <!-- 背景 -->
  <rect width="256" height="256" fill="#f5e9db"/>
  
  <!-- 书法背景文字 -->
  <g opacity="0.1">
    <text x="20" y="40" font-family="STKaiti, SimSun" font-size="24" fill="#333">子非鱼</text>
    <text x="20" y="70" font-family="STKaiti, SimSun" font-size="24" fill="#333">安知方思</text>
    <text x="20" y="100" font-family="STKaiti, SimSun" font-size="24" fill="#333">历史文化</text>
    <text x="20" y="130" font-family="STKaiti, SimSun" font-size="24" fill="#333">武山县</text>
    <text x="20" y="160" font-family="STKaiti, SimSun" font-size="24" fill="#333">航特</text>
    <text x="20" y="190" font-family="STKaiti, SimSun" font-size="24" fill="#333">安知鱼之乐谁</text>
  </g>
  
  <!-- 头部轮廓 -->
  <ellipse cx="128" cy="110" rx="80" ry="100" fill="#f8e8e0"/>
  
  <!-- 头发 -->
  <path d="M48 110 C60 50 90 30 128 30 C166 30 196 50 208 110 L190 130 C185 90 165 70 128 70 C91 70 75 90 70 130 Z" fill="#a4c2f4"/>
  <path d="M128 30 C110 35 95 50 95 70 C95 90 110 105 128 110 C146 105 161 90 161 70 C161 50 146 35 128 30 Z" fill="#93b4f7"/>
  
  <!-- 发饰 -->
  <path d="M128 30 C115 32 105 42 105 55 C110 60 120 60 128 55 C136 60 146 60 151 55 C151 42 141 32 128 30 Z" fill="#e0e7ff"/>
  <circle cx="115" cy="55" r="3" fill="#818cf8"/>
  <circle cx="128" cy="52" r="3" fill="#818cf8"/>
  <circle cx="141" cy="55" r="3" fill="#818cf8"/>
  
  <!-- 眼睛 -->
  <ellipse cx="100" cy="100" rx="10" ry="12" fill="#fff"/>
  <ellipse cx="156" cy="100" rx="10" ry="12" fill="#fff"/>
  <circle cx="100" cy="100" r="5" fill="#60a5fa"/>
  <circle cx="156" cy="100" r="5" fill="#60a5fa"/>
  <circle cx="97" cy="98" r="2" fill="#000"/>
  <circle cx="153" cy="98" r="2" fill="#000"/>
  
  <!-- 眉毛 -->
  <path d="M90 85 C95 80 105 80 110 85" stroke="#333" stroke-width="1.5" fill="none"/>
  <path d="M146 85 C151 80 161 80 166 85" stroke="#333" stroke-width="1.5" fill="none"/>
  
  <!-- 嘴巴 -->
  <path d="M120 135 C125 145 131 145 136 135" stroke="#f472b6" stroke-width="2" fill="none"/>
  
  <!-- 耳环 -->
  <circle cx="75" cy="140" r="8" fill="#e0e7ff"/>
  <circle cx="181" cy="140" r="8" fill="#e0e7ff"/>
  <path d="M75 140 L75 160" stroke="#e0e7ff" stroke-width="2"/>
  <path d="M181 140 L181 160" stroke="#e0e7ff" stroke-width="2"/>
  
  <!-- 项链 -->
  <path d="M100 175 C128 195 128 195 156 175" stroke="#e0e7ff" stroke-width="3" fill="none"/>
  <circle cx="128" cy="185" r="5" fill="#818cf8"/>
  
  <!-- 衣服 -->
  <path d="M80 170 C75 190 75 220 128 256 C181 220 181 190 176 170 L176 150 C170 145 150 140 128 140 C106 140 86 145 80 150 Z" fill="#fecdd3"/>
  
  <!-- 圆形装饰画 -->
  <circle cx="128" cy="190" r="30" fill="#fff" stroke="#f9a8d4" stroke-width="2"/>
  <path d="M110 180 C110 170 130 170 130 180" stroke="#f9a8d4" stroke-width="1"/>
  <path d="M115 190 C115 185 125 185 125 190" stroke="#f9a8d4" stroke-width="1"/>
  <path d="M120 200 C120 195 130 195 130 200" stroke="#f9a8d4" stroke-width="1"/>
  <path d="M110 210 C110 200 130 200 130 210" stroke="#f9a8d4" stroke-width="1"/>
</svg>