<svg xmlns="http://www.w3.org/2000/svg" width="32" height="32" viewBox="0 0 32 32">
  <rect width="32" height="32" fill="#F39C12" rx="4" />
  <path d="M16 2C8.268 2 2 8.268 2 16C2 23.732 8.268 30 16 30C23.732 30 30 23.732 30 16C30 8.268 23.732 2 16 2ZM16 28C9.373 28 4 22.627 4 16C4 9.373 9.373 4 16 4C22.627 4 28 9.373 28 16C28 22.627 22.627 28 16 28ZM12 14H20V18H12V14ZM16 10C17.105 10 18 10.895 18 12C18 13.105 17.105 14 16 14C14.895 14 14 13.105 14 12C14 10.895 14.895 10 16 10Z" fill="white" />
</svg>