<svg xmlns="http://www.w3.org/2000/svg" width="1800" height="1100" viewBox="0 0 1800 1100">
  <defs>
    <linearGradient id="bg" x1="0" y1="0" x2="1" y2="1">
      <stop offset="0" stop-color="#f7fdff"/>
      <stop offset="0.38" stop-color="#e4f8fb"/>
      <stop offset="0.74" stop-color="#eef6ff"/>
      <stop offset="1" stop-color="#c7eaf4"/>
    </linearGradient>
    <radialGradient id="leftGlow" cx="0.06" cy="0.72" r="0.62">
      <stop offset="0" stop-color="#93eef2" stop-opacity="0.55"/>
      <stop offset="0.42" stop-color="#b8f7fb" stop-opacity="0.24"/>
      <stop offset="1" stop-color="#ffffff" stop-opacity="0"/>
    </radialGradient>
    <radialGradient id="rightGlow" cx="0.96" cy="0.18" r="0.56">
      <stop offset="0" stop-color="#b9dcff" stop-opacity="0.46"/>
      <stop offset="0.52" stop-color="#d9ecff" stop-opacity="0.18"/>
      <stop offset="1" stop-color="#ffffff" stop-opacity="0"/>
    </radialGradient>
    <linearGradient id="wave" x1="0" y1="0" x2="1" y2="0">
      <stop offset="0" stop-color="#7eeaf0" stop-opacity="0"/>
      <stop offset="0.28" stop-color="#7eeaf0" stop-opacity="0.26"/>
      <stop offset="0.66" stop-color="#ffffff" stop-opacity="0.34"/>
      <stop offset="1" stop-color="#74bff2" stop-opacity="0"/>
    </linearGradient>
    <filter id="soften" x="-10%" y="-10%" width="120%" height="120%">
      <feGaussianBlur stdDeviation="18"/>
    </filter>
  </defs>
  <rect width="1800" height="1100" fill="url(#bg)"/>
  <rect width="1800" height="1100" fill="url(#leftGlow)"/>
  <rect width="1800" height="1100" fill="url(#rightGlow)"/>
  <path d="M-120 920 C 220 720, 420 940, 760 742 S 1330 642, 1950 420" fill="none" stroke="url(#wave)" stroke-width="42" filter="url(#soften)"/>
  <path d="M-160 1040 C 230 820, 520 1070, 910 820 S 1380 690, 1960 610" fill="none" stroke="#ffffff" stroke-opacity="0.28" stroke-width="16" filter="url(#soften)"/>
  <path d="M-140 860 C 170 775, 420 825, 680 710 S 1240 560, 1930 520" fill="none" stroke="#68d9ea" stroke-opacity="0.18" stroke-width="12" filter="url(#soften)"/>
  <rect width="1800" height="1100" fill="#ffffff" opacity="0.10"/>
</svg>
